<?xml version="1.0" encoding="UTF-8"?>
<svg version="1.1" xmlns="http://www.w3.org/2000/svg" width="934" height="354" viewBox="0 0 934 354">
    <path d="M0 0 C23.3298354 20.11093603 39.27366001 45.98924544 42.97265625 77.00390625 C45.27129902 108.41869077 38.73434124 140.87134135 17.65234375 165.328125 C17.19085938 165.82957031 16.729375 166.33101562 16.25390625 166.84765625 C14.90976382 162.81522895 16.03909672 161.1210349 17.50390625 157.16015625 C29.37300819 123.59825392 25.38271124 86.69095904 10.37890625 54.84765625 C6.58447604 47.06199517 2.48948195 39.76979092 -2.74609375 32.84765625 C-3.41898437 31.95433594 -4.091875 31.06101563 -4.78515625 30.140625 C-27.5200278 1.24667006 -58.47970522 -16.30292624 -94.74609375 -22.15234375 C-94.41609375 -22.81234375 -94.08609375 -23.47234375 -93.74609375 -24.15234375 C-62.05034973 -31.00073165 -24.71260778 -20.45753341 0 0 Z " transform="translate(194.74609375,99.15234375)"/>
    <path d="M0 0 C0.66 0.33 1.32 0.66 2 1 C1.60167969 2.16273437 1.20335937 3.32546875 0.79296875 4.5234375 C-7.70241182 29.89448742 -10.55959173 56.73496805 -4 83 C-3.8443457 83.66402832 -3.68869141 84.32805664 -3.52832031 85.01220703 C4.74534776 119.75005292 27.21962332 149.78105968 57 169 C57.95519531 169.61746094 58.91039062 170.23492187 59.89453125 170.87109375 C75.84870828 180.67058142 92.83886116 185.0568763 111 189 C110.67 189.66 110.34 190.32 110 191 C79.59226954 196.42746676 47.19047684 188.2365185 21.93359375 170.89453125 C19.5318235 169.01145317 17.26015758 167.04991036 15 165 C14.18660156 164.31550781 13.37320313 163.63101563 12.53515625 162.92578125 C-8.87477805 144.55084534 -22.68931128 117.98677179 -26 90 C-26.28438177 85.2459377 -26.33420431 80.51173764 -26.3125 75.75 C-26.30758545 74.47237793 -26.3026709 73.19475586 -26.29760742 71.87841797 C-26.18184779 62.54284879 -25.49823571 54.00786615 -23 45 C-22.52433594 43.20755859 -22.52433594 43.20755859 -22.0390625 41.37890625 C-17.56238091 26.3772605 -9.80087896 12.1826568 0 0 Z " transform="translate(143,93)"/>
    <path d="M0 0 C0.6084375 0.43441406 1.216875 0.86882812 1.84375 1.31640625 C2.5346875 1.80238281 3.225625 2.28835937 3.9375 2.7890625 C15.32083084 11.77254934 18.96121255 25.24147638 20.63456726 39.12460327 C20.9825346 42.77058219 21.02644858 46.4059137 21.046875 50.06640625 C21.05257507 50.88278564 21.05827515 51.69916504 21.06414795 52.5402832 C21.07354008 54.2613803 21.08010871 55.98249492 21.08398438 57.70361328 C21.09362108 60.28191254 21.12467123 62.85938942 21.15625 65.4375 C21.26933387 82.81058404 19.850904 101.0285183 7.40625 114.44140625 C-1.62895513 122.49983244 -11.61493488 122.85500856 -23.16992188 122.43505859 C-31.11785954 121.96029241 -36.18569949 118.40455402 -41.859375 112.96875 C-51.62806433 101.6882397 -54.27879862 86.17719062 -54.359375 71.69921875 C-54.36507507 70.88379608 -54.37077515 70.06837341 -54.37664795 69.22824097 C-54.38605349 67.50536373 -54.39261414 65.78246887 -54.39648438 64.05957031 C-54.40609343 61.48338308 -54.43711841 58.90802852 -54.46875 56.33203125 C-54.58868454 37.6000789 -53.05735603 18.50528155 -39.43359375 4.3828125 C-29.91611079 -4.25311973 -11.38394162 -6.48252231 0 0 Z M-30.28125 16.31640625 C-39.62306273 27.98144466 -39.54482662 44.82864434 -39.46875 59.00390625 C-39.46692719 59.70751282 -39.46510437 60.41111938 -39.46322632 61.13604736 C-39.61447771 84.23146449 -39.61447771 84.23146449 -29.41796875 104.21484375 C-24.59256916 108.61660012 -20.78689713 109.65818795 -14.171875 109.5234375 C-9.45013608 109.03845269 -6.25085169 106.67899798 -3.03125 103.37890625 C9.56702565 87.54861224 6.98113561 58.74313673 5.56640625 39.890625 C4.30452922 29.08655402 1.41852831 19.48612198 -7.2890625 12.5234375 C-15.01856831 7.52674859 -24.26258333 10.05759328 -30.28125 16.31640625 Z " transform="translate(429.15625,119.68359375)"/>
    <path d="M0 0 C4.14298667 0.59834725 7.18194377 2.00664285 10.8125 4.0625 C12.27623047 4.88427734 12.27623047 4.88427734 13.76953125 5.72265625 C14.87361328 6.35494141 14.87361328 6.35494141 16 7 C14.34784134 11.6152693 11.99059065 15.67656215 9.5 19.875 C8.83786499 20.99285889 8.83786499 20.99285889 8.16235352 22.13330078 C-0.53240563 36.68056843 -9.60738427 51.3078027 -23 62 C-20.95953274 65.63177507 -18.71381615 68.58268448 -15.875 71.625 C-12.62912126 75.16500368 -9.51709748 78.76303365 -6.5 82.5 C-3.5918662 86.0947765 -0.61458668 89.58260628 2.5 93 C6.35039016 97.23009991 9.98681201 101.59507804 13.58203125 106.04296875 C16.84253456 110.03036941 20.18620645 113.94525194 23.54638672 117.84887695 C27 121.89169422 27 121.89169422 27 123 C10.09322537 125.67420355 10.09322537 125.67420355 3.84082031 121.58935547 C-0.2368196 117.69133339 -3.31841279 113.05163448 -6.40576172 108.35595703 C-8.88902112 104.68620921 -11.72452174 101.33500786 -14.5625 97.9375 C-15.62456022 96.6319661 -16.68445345 95.32466639 -17.7421875 94.015625 C-20.03386007 91.18843651 -22.33151779 88.36623658 -24.6328125 85.546875 C-25.22763428 84.81734619 -25.82245605 84.08781738 -26.43530273 83.33618164 C-27.57703148 81.93610435 -28.71972509 80.53681316 -29.86352539 79.13842773 C-30.63297485 78.19398804 -30.63297485 78.19398804 -31.41796875 77.23046875 C-31.86938232 76.67770264 -32.3207959 76.12493652 -32.78588867 75.55541992 C-33.92937215 74.09048261 -34.96915333 72.54627001 -36 71 C-36.33 88.16 -36.66 105.32 -37 123 C-41.95 123 -46.9 123 -52 123 C-52 83.07 -52 43.14 -52 2 C-47.05 2 -42.1 2 -37 2 C-37 18.83 -37 35.66 -37 53 C-18.7235694 39.29267705 -7.728826 21.34290483 0 0 Z " transform="translate(335,117)"/>
    <path d="M0 0 C21.45 0 42.9 0 65 0 C65 4.29 65 8.58 65 13 C48.83 13 32.66 13 16 13 C16 25.87 16 38.74 16 52 C27.55 52 39.1 52 51 52 C51 56.62 51 61.24 51 66 C39.45 66 27.9 66 16 66 C16 79.86 16 93.72 16 108 C32.5 108 49 108 66 108 C66 112.29 66 116.58 66 121 C44.22 121 22.44 121 0 121 C0 81.07 0 41.14 0 0 Z " transform="translate(766,119)"/>
    <path d="M0 0 C3.5546834 2.51257298 6.9072208 5.20276941 10.1875 8.0625 C8.74325365 11.30111303 6.92977753 13.68219163 4.5625 16.3125 C3.61503906 17.37210938 3.61503906 17.37210938 2.6484375 18.453125 C2.16632813 18.98421875 1.68421875 19.5153125 1.1875 20.0625 C0.72601562 19.69898438 0.26453125 19.33546875 -0.2109375 18.9609375 C-13.10998252 9.00237834 -13.10998252 9.00237834 -28.8125 7.0625 C-33.41868518 8.59789506 -36.82116635 10.18484527 -39.8125 14.0625 C-42.28279879 19.12073085 -42.36738213 23.73748729 -40.8125 29.0625 C-36.27368834 36.2563445 -29.28033009 40.27543448 -22.125 44.5 C-19.97558882 45.80746398 -17.82842466 47.11862955 -15.68359375 48.43359375 C-14.66507324 49.05733887 -13.64655273 49.68108398 -12.59716797 50.32373047 C-2.59525018 56.56901002 7.50333909 63.32189641 11.1875 75.0625 C11.60962508 77.82692525 11.66531355 80.51943793 11.625 83.3125 C11.61670166 84.05685303 11.60840332 84.80120605 11.59985352 85.56811523 C11.32038382 94.7587894 8.80066238 102.50109366 2.390625 109.2734375 C-8.53492588 118.14560471 -20.36552525 119.11116973 -33.8125 118.0625 C-44.95975762 115.80987866 -54.60309006 108.68804404 -61.8125 100.0625 C-62.1425 99.0725 -62.4725 98.0825 -62.8125 97.0625 C-61.02576795 95.5566255 -59.23296492 94.0579515 -57.4375 92.5625 C-56.43976563 91.7271875 -55.44203125 90.891875 -54.4140625 90.03125 C-51.8125 88.0625 -51.8125 88.0625 -49.8125 88.0625 C-48.76498366 89.40165441 -47.77472124 90.78580271 -46.8125 92.1875 C-42.34549407 98.12477833 -36.25021814 102.68013623 -28.8125 104.0625 C-22.92958815 104.45469412 -17.98181606 104.10641545 -12.8125 101.0625 C-8.37547297 97.08684525 -5.22006034 92.78785624 -4.5625 86.77734375 C-4.27944099 80.91271486 -5.15847999 76.8220312 -8.8125 72.0625 C-11.02641005 70.25267122 -13.02960514 68.79084282 -15.4375 67.3125 C-16.40852661 66.68807007 -16.40852661 66.68807007 -17.39916992 66.05102539 C-21.04071776 63.72802115 -24.73794058 61.50237657 -28.44921875 59.29296875 C-53.76316287 44.20115192 -53.76316287 44.20115192 -57.8125 30.0625 C-58.84890343 19.8912849 -57.53443497 11.83791633 -52 3.25 C-37.88109752 -10.86890248 -16.22302468 -10.3945539 0 0 Z " transform="translate(537.8125,123.9375)"/>
    <path d="M0 0 C1.40312792 0.87300333 2.78406283 1.78418931 4.125 2.75 C5.053125 3.348125 5.98125 3.94625 6.9375 4.5625 C13.92338379 11.54838379 16.125 18.93265646 16.125 28.75 C11.175 28.75 6.225 28.75 1.125 28.75 C0.733125 27.203125 0.34125 25.65625 -0.0625 24.0625 C-1.66603304 18.71486859 -3.85214052 15.50762139 -8.76953125 12.6484375 C-13.05475528 10.81986324 -17.58311926 11.13023552 -22.02734375 12.33203125 C-27.98533285 14.83644509 -31.13669482 19.01337252 -33.875 24.75 C-41.56529926 46.02731361 -42.56878363 74.69686811 -34 95.875 C-31.39392846 101.02813769 -28.70358592 104.71495137 -23.5625 107.625 C-17.66098509 109.42546217 -13.22548722 109.60833293 -7.625 107.125 C-3.78847779 104.95849334 -1.81685826 102.78309023 0.125 98.75 C0.99260367 95.41919971 1.57264854 92.15616736 2.125 88.75 C7.405 88.75 12.685 88.75 18.125 88.75 C17.53739447 99.0330968 15.31456033 107.33778491 8.125 114.9921875 C-1.68843345 123.6172755 -12.49701077 123.45457985 -24.875 122.75 C-33.73877126 121.63744388 -39.96644169 115.49746838 -45.4765625 108.8046875 C-54.39138999 95.73325333 -55.23515997 79.05677736 -55.19067383 63.77001953 C-55.18752343 61.51675503 -55.21103168 59.26482133 -55.23632812 57.01171875 C-55.31276174 39.58426071 -52.87101612 20.33334147 -40.875 6.75 C-29.97361195 -2.53307433 -13.48701048 -6.62126648 0 0 Z " transform="translate(715.875,119.25)"/>
    <path d="M0 0 C15.51 0 31.02 0 47 0 C47 4.29 47 8.58 47 13 C41.72 13 36.44 13 31 13 C31 44.35 31 75.7 31 108 C36.28 108 41.56 108 47 108 C47 112.29 47 116.58 47 121 C31.49 121 15.98 121 0 121 C0 116.71 0 112.42 0 108 C5.28 108 10.56 108 16 108 C16 76.65 16 45.3 16 13 C10.72 13 5.44 13 0 13 C0 8.71 0 4.42 0 0 Z " transform="translate(583,119)"/>
    <path d="M0 0 C4.37063795 0.71398383 7.45144529 3.24479479 10.9375 5.8125 C11.54529297 6.25142578 12.15308594 6.69035156 12.77929688 7.14257812 C15.5300254 9.1396011 18.14380262 11.12752308 20.69140625 13.38671875 C22.79259513 15.23480257 22.79259513 15.23480257 24.88256836 14.7824707 C27.3438337 13.8729405 29.09165717 12.67231286 31.1875 11.09375 C31.96867188 10.51496094 32.74984375 9.93617187 33.5546875 9.33984375 C34.36164062 8.73269531 35.16859375 8.12554687 36 7.5 C37.5998282 6.2962954 39.20384914 5.09813818 40.8125 3.90625 C41.52019531 3.37322266 42.22789062 2.84019531 42.95703125 2.29101562 C45.00166599 0.99894721 46.63606529 0.43294535 49 0 C50.19959375 1.25942386 51.38439443 2.53295286 52.5625 3.8125 C53.22378906 4.52019531 53.88507812 5.22789063 54.56640625 5.95703125 C55.03949219 6.63121094 55.51257813 7.30539063 56 8 C54.74507047 11.76478859 53.16902481 12.69380667 50.0625 15.125 C46.22016451 18.18693876 42.49655784 21.30476487 38.875 24.625 C34.43450335 28.67410672 29.80320674 32.39179397 25 36 C13.65384123 27.89560088 3.36760077 18.29993456 -7 9 C-6.02180976 7.68677212 -5.0424189 6.37443848 -4.0625 5.0625 C-3.51722656 4.33160156 -2.97195313 3.60070312 -2.41015625 2.84765625 C-1 1 -1 1 0 0 Z " transform="translate(488,79)"/>
    <path d="M0 0 C0.86772029 2.07772471 1.71873619 4.16243177 2.5625 6.25 C3.03816406 7.41015625 3.51382813 8.5703125 4.00390625 9.765625 C5 13 5 13 5.05078125 15.24609375 C3.30984518 18.15196845 0.73049177 18.67793292 -2.375 19.8125 C-3.53773438 20.25207031 -4.70046875 20.69164062 -5.8984375 21.14453125 C-9 22 -9 22 -12 21 C-13.04409043 18.67359006 -13.89690418 16.47250358 -14.6875 14.0625 C-14.91244141 13.41603516 -15.13738281 12.76957031 -15.36914062 12.10351562 C-17 7.32990597 -17 7.32990597 -17 5 C-14.91999989 4.15838146 -12.83585854 3.32699237 -10.75 2.5 C-9.58984375 2.0359375 -8.4296875 1.571875 -7.234375 1.09375 C-4 0 -4 0 0 0 Z " transform="translate(191,191)"/>
    <path d="M0 0 C0.83919398 2.26882087 1.67151724 4.53977027 2.5 6.8125 C2.73847656 7.45509766 2.97695312 8.09769531 3.22265625 8.75976562 C4.27068746 11.64933739 5 13.90076061 5 17 C2.91999989 17.84161854 0.83585854 18.67300763 -1.25 19.5 C-2.41015625 19.9640625 -3.5703125 20.428125 -4.765625 20.90625 C-8 22 -8 22 -12 22 C-12.8655047 19.73291675 -13.71759315 17.46224921 -14.5625 15.1875 C-14.80935547 14.54490234 -15.05621094 13.90230469 -15.31054688 13.24023438 C-17.11328125 8.33984375 -17.11328125 8.33984375 -16 5 C-13.67359006 3.95590957 -11.47250358 3.10309582 -9.0625 2.3125 C-8.09280273 1.97508789 -8.09280273 1.97508789 -7.10351562 1.63085938 C-2.32990597 0 -2.32990597 0 0 0 Z " transform="translate(175,146)"/>
</svg>