<svg viewBox="188.94 597.47 894.6546000000001 807.1234567901234" xml:space="preserve" y="0px" x="0px" id="Слой_1" version="1.1" xmlns:xlink="http://www.w3.org/1999/xlink" xmlns="http://www.w3.org/2000/svg" style="max-height: 500px" width="894.6546000000001" height="807.1234567901234">
<text transform="matrix(1 0 0 1 1121.9434 822.1519)"><tspan letter-spacing="-2" font-size="148.466px" font-family="'MyriadPro-Bold'" fill="#FFFFFF" y="0" x="0">C</tspan><tspan font-size="148.466px" font-family="'MyriadPro-Bold'" fill="#FFFFFF" y="0" x="85.66">e</tspan><tspan font-size="148.466px" font-family="'MyriadPro-Bold'" fill="#FFFFFF" y="0" x="164.05">n</tspan><tspan font-size="148.466px" font-family="'MyriadPro-Bold'" fill="#FFFFFF" y="0" x="250.31">t</tspan><tspan font-size="148.466px" font-family="'MyriadPro-Bold'" fill="#FFFFFF" y="0" x="304.8">r</tspan><tspan font-size="148.466px" font-family="'MyriadPro-Bold'" fill="#FFFFFF" y="0" x="360.92">um</tspan></text>
<text transform="matrix(1 0 0 1 1121.9434 1000.3105)"><tspan letter-spacing="-3" font-size="148.466px" font-family="'MyriadPro-Bold'" fill="#FFFFFF" y="0" x="0">P</tspan><tspan font-size="148.466px" font-family="'MyriadPro-Bold'" fill="#FFFFFF" y="0" x="82.69">o</tspan><tspan font-size="148.466px" font-family="'MyriadPro-Bold'" fill="#FFFFFF" y="0" x="168.8">d</tspan><tspan font-size="148.466px" font-family="'MyriadPro-Bold'" fill="#FFFFFF" y="0" x="257.29">p</tspan><tspan font-size="148.466px" font-family="'MyriadPro-Bold'" fill="#FFFFFF" y="0" x="346.52">o</tspan><tspan letter-spacing="2" font-size="148.466px" font-family="'MyriadPro-Bold'" fill="#FFFFFF" y="0" x="432.18">r</tspan><tspan font-size="148.466px" font-family="'MyriadPro-Bold'" fill="#FFFFFF" y="0" x="491.12">y</tspan></text>
<text transform="matrix(1 0 0 1 1121.9434 1178.4707)"><tspan letter-spacing="-2" font-size="148.466px" font-family="'MyriadPro-Bold'" fill="#FFFFFF" y="0" x="0">C</tspan><tspan font-size="148.466px" font-family="'MyriadPro-Bold'" fill="#FFFFFF" y="0" x="85.51">udzin</tspan><tspan letter-spacing="-1" font-size="148.466px" font-family="'MyriadPro-Bold'" fill="#FFFFFF" y="0" x="457.86">c</tspan><tspan letter-spacing="-1" font-size="148.466px" font-family="'MyriadPro-Bold'" fill="#FFFFFF" y="0" x="523.33">o</tspan><tspan font-size="148.466px" font-family="'MyriadPro-Bold'" fill="#FFFFFF" y="0" x="607.66">v</tspan></text>
<g>
	<defs>
		<rect height="2000" width="2000" id="SVGID_1_"/>
	</defs>
	<clipPath id="SVGID_2_">
		
	</clipPath>
	<path d="M652.29,1013.73v92.44c0,5.69-5.69,11.38-11.38,11.38   c-5.69,0-11.38-5.69-11.38-11.38v-85.33c0-2.84-2.84-5.69-5.69-5.69c-2.84,0-5.69,2.84-5.69,5.69v216.18   c0,8.53-7.11,14.22-14.22,14.22c-8.53,0-14.22-5.69-14.22-14.22v-98.13h-18.49v98.13c0,8.53-7.11,14.22-14.22,14.22   c-8.53,0-14.22-5.69-14.22-14.22v-214.76c0-2.84-2.84-5.69-5.69-5.69c-2.84,0-5.69,2.84-5.69,5.69v85.33   c0,5.69-5.69,11.38-11.38,11.38c-5.69,0-11.38-5.69-11.38-11.38v-92.44c0-18.49,15.64-34.13,34.13-34.13h73.96   C636.65,979.6,652.29,995.24,652.29,1013.73" fill="#FFFFFF" clip-path="url(#SVGID_2_)"/>
	<path d="M581.18,897.11c18.85,0,34.13,15.28,34.13,34.13s-15.28,34.13-34.13,34.13   c-18.85,0-34.13-15.28-34.13-34.13S562.33,897.11,581.18,897.11" fill="#FFFFFF" clip-path="url(#SVGID_2_)"/>
	<path d="M540,673.02v59.89c0,3.69-3.69,7.37-7.37,7.37c-3.69,0-7.37-3.69-7.37-7.37   v-55.28c0-1.84-1.84-3.69-3.69-3.69c-1.84,0-3.68,1.84-3.68,3.69v140.05c0,5.53-4.61,9.21-9.21,9.21c-5.53,0-9.21-3.69-9.21-9.21   V754.1h-11.98v63.57c0,5.53-4.61,9.21-9.21,9.21c-5.53,0-9.21-3.69-9.21-9.21V678.55c0-1.84-1.84-3.69-3.69-3.69   c-1.84,0-3.69,1.84-3.69,3.69v55.28c0,3.69-3.68,7.37-7.37,7.37c-3.68,0-7.37-3.68-7.37-7.37v-59.89   c0-11.98,10.14-22.11,22.11-22.11h47.91C529.86,650.91,540,661.04,540,673.02" fill="#FFFFFF" clip-path="url(#SVGID_2_)"/>
	<path d="M493.93,597.47c12.21,0,22.11,9.9,22.11,22.11c0,12.21-9.9,22.11-22.11,22.11   c-12.21,0-22.11-9.9-22.11-22.11C471.82,607.37,481.72,597.47,493.93,597.47" fill="#FFFFFF" clip-path="url(#SVGID_2_)"/>
	<path d="M707,673.02v59.89c0,3.69-3.69,7.37-7.37,7.37c-3.69,0-7.37-3.69-7.37-7.37   v-55.28c0-1.84-1.84-3.69-3.69-3.69c-1.84,0-3.68,1.84-3.68,3.69v140.05c0,5.53-4.61,9.21-9.21,9.21c-5.53,0-9.21-3.69-9.21-9.21   V754.1h-11.98v63.57c0,5.53-4.61,9.21-9.21,9.21c-5.53,0-9.21-3.69-9.21-9.21V678.55c0-1.84-1.84-3.69-3.69-3.69   c-1.84,0-3.69,1.84-3.69,3.69v55.28c0,3.69-3.68,7.37-7.37,7.37c-3.68,0-7.37-3.68-7.37-7.37v-59.89   c0-11.98,10.14-22.11,22.11-22.11h47.91C696.86,650.91,707,661.04,707,673.02" fill="#FFFFFF" clip-path="url(#SVGID_2_)"/>
	<path d="M660.93,597.47c12.21,0,22.11,9.9,22.11,22.11c0,12.21-9.9,22.11-22.11,22.11   c-12.21,0-22.11-9.9-22.11-22.11C638.82,607.37,648.72,597.47,660.93,597.47" fill="#FFFFFF" clip-path="url(#SVGID_2_)"/>
	<path d="M385,705.02v59.89c0,3.69-3.69,7.37-7.37,7.37c-3.69,0-7.37-3.69-7.37-7.37   v-55.28c0-1.84-1.84-3.69-3.69-3.69c-1.84,0-3.68,1.84-3.68,3.69v140.05c0,5.53-4.61,9.21-9.21,9.21c-5.53,0-9.21-3.69-9.21-9.21   V786.1h-11.98v63.57c0,5.53-4.61,9.21-9.21,9.21c-5.53,0-9.21-3.69-9.21-9.21V710.55c0-1.84-1.84-3.69-3.69-3.69   c-1.84,0-3.69,1.84-3.69,3.69v55.28c0,3.69-3.68,7.37-7.37,7.37c-3.68,0-7.37-3.68-7.37-7.37v-59.89   c0-11.98,10.14-22.11,22.11-22.11h47.91C374.86,682.91,385,693.04,385,705.02" fill="#FFFFFF" clip-path="url(#SVGID_2_)"/>
	<path d="M338.93,629.47c12.21,0,22.11,9.9,22.11,22.11c0,12.21-9.9,22.11-22.11,22.11   c-12.21,0-22.11-9.9-22.11-22.11C316.82,639.37,326.72,629.47,338.93,629.47" fill="#FFFFFF" clip-path="url(#SVGID_2_)"/>
	<path d="M825.29,988.73v92.44c0,5.69-5.69,11.38-11.38,11.38   c-5.69,0-11.38-5.69-11.38-11.38v-85.33c0-2.84-2.84-5.69-5.69-5.69c-2.84,0-5.69,2.84-5.69,5.69v216.18   c0,8.53-7.11,14.22-14.22,14.22c-8.53,0-14.22-5.69-14.22-14.22v-98.13h-18.49v98.13c0,8.53-7.11,14.22-14.22,14.22   c-8.53,0-14.22-5.69-14.22-14.22V997.27c0-2.84-2.84-5.69-5.69-5.69c-2.84,0-5.69,2.84-5.69,5.69v85.33   c0,5.69-5.69,11.38-11.38,11.38c-5.69,0-11.38-5.69-11.38-11.38v-92.44c0-18.49,15.64-34.13,34.13-34.13h73.96   C809.65,954.6,825.29,970.24,825.29,988.73" fill="#FFFFFF" clip-path="url(#SVGID_2_)"/>
	<path d="M754.18,872.11c18.85,0,34.13,15.28,34.13,34.13s-15.28,34.13-34.13,34.13   c-18.85,0-34.13-15.28-34.13-34.13S735.33,872.11,754.18,872.11" fill="#FFFFFF" clip-path="url(#SVGID_2_)"/>
	<path d="M478.29,988.73v92.44c0,5.69-5.69,11.38-11.38,11.38s-11.38-5.69-11.38-11.38   v-85.33c0-2.84-2.84-5.69-5.69-5.69c-2.84,0-5.69,2.84-5.69,5.69v216.18c0,8.53-7.11,14.22-14.22,14.22   c-8.53,0-14.22-5.69-14.22-14.22v-98.13h-18.49v98.13c0,8.53-7.11,14.22-14.22,14.22c-8.53,0-14.22-5.69-14.22-14.22V997.27   c0-2.84-2.84-5.69-5.69-5.69c-2.84,0-5.69,2.84-5.69,5.69v85.33c0,5.69-5.69,11.38-11.38,11.38s-11.38-5.69-11.38-11.38v-92.44   c0-18.49,15.64-34.13,34.13-34.13h73.96C462.65,954.6,478.29,970.24,478.29,988.73" fill="#FFFFFF" clip-path="url(#SVGID_2_)"/>
	<path d="M407.18,872.11c18.85,0,34.13,15.28,34.13,34.13s-15.28,34.13-34.13,34.13   c-18.85,0-34.13-15.28-34.13-34.13S388.33,872.11,407.18,872.11" fill="#FFFFFF" clip-path="url(#SVGID_2_)"/>
	<path d="M324,908.34v86.92c0,5.35-5.35,10.7-10.7,10.7s-10.7-5.35-10.7-10.7v-80.23   c0-2.67-2.67-5.35-5.35-5.35c-2.67,0-5.35,2.67-5.35,5.35v203.26c0,8.02-6.69,13.37-13.37,13.37c-8.02,0-13.37-5.35-13.37-13.37   v-92.27h-17.38v92.27c0,8.02-6.69,13.37-13.37,13.37c-8.02,0-13.37-5.35-13.37-13.37V916.37c0-2.67-2.67-5.35-5.35-5.35   c-2.67,0-5.35,2.67-5.35,5.35v80.23c0,5.35-5.35,10.7-10.7,10.7s-10.7-5.35-10.7-10.7v-86.92c0-17.38,14.71-32.09,32.09-32.09   h69.54C309.29,876.25,324,890.96,324,908.34" fill="#FFFFFF" clip-path="url(#SVGID_2_)"/>
	<path d="M257.14,798.69c17.72,0,32.09,14.37,32.09,32.09   c0,17.72-14.37,32.09-32.09,32.09s-32.09-14.37-32.09-32.09C225.05,813.06,239.42,798.69,257.14,798.69" fill="#FFFFFF" clip-path="url(#SVGID_2_)"/>
	<path d="M797.98,683.83h47.91c11.98,0,22.11,10.14,22.11,22.11v59.89   c0,3.68-3.68,7.37-7.37,7.37c-3.68,0-7.37-3.69-7.37-7.37v-55.28c0-1.84-1.84-3.69-3.69-3.69c-1.84,0-3.68,1.84-3.68,3.69v139.13   c0,5.53-3.69,9.21-9.21,9.21c-4.61,0-9.21-3.69-9.21-9.21V786.1h-11.98v63.57c0,5.53-3.69,9.21-9.21,9.21   c-4.61,0-9.21-3.69-9.21-9.21V709.62c0-1.84-1.84-3.69-3.69-3.69c-1.84,0-3.68,1.84-3.68,3.69v55.28c0,3.69-3.69,7.37-7.37,7.37   c-3.69,0-7.37-3.68-7.37-7.37v-59.89C774.94,693.04,785.08,682.91,797.98,683.83" fill="#FFFFFF" clip-path="url(#SVGID_2_)"/>
	<path d="M843.12,651.58c0,12.21-9.9,22.11-22.11,22.11c-12.21,0-22.11-9.9-22.11-22.11   c0-12.21,9.9-22.11,22.11-22.11C833.22,629.47,843.12,639.37,843.12,651.58" fill="#FFFFFF" clip-path="url(#SVGID_2_)"/>
	<path d="M869.37,877.59h69.53c17.38,0,32.09,14.71,32.09,32.09v86.92   c0,5.35-5.35,10.7-10.7,10.7s-10.7-5.35-10.7-10.7v-80.23c0-2.68-2.68-5.35-5.35-5.35c-2.68,0-5.35,2.68-5.35,5.35v201.92   c0,8.02-5.35,13.37-13.37,13.37c-6.69,0-13.37-5.35-13.37-13.37v-92.27h-17.38v92.27c0,8.02-5.35,13.37-13.37,13.37   c-6.69,0-13.37-5.35-13.37-13.37V915.03c0-2.67-2.67-5.35-5.35-5.35c-2.67,0-5.35,2.68-5.35,5.35v80.23c0,5.35-5.35,10.7-10.7,10.7   s-10.7-5.35-10.7-10.7v-86.92C835.94,890.96,850.65,876.25,869.37,877.59" fill="#FFFFFF" clip-path="url(#SVGID_2_)"/>
	<path d="M934.89,830.79c0,17.72-14.37,32.09-32.09,32.09   c-17.72,0-32.09-14.37-32.09-32.09c0-17.72,14.37-32.09,32.09-32.09C920.53,798.69,934.89,813.06,934.89,830.79" fill="#FFFFFF" clip-path="url(#SVGID_2_)"/>
</g>
</svg>