<?xml version="1.0" encoding="utf-8"?>
<!-- Generator: Adobe Illustrator 24.1.2, SVG Export Plug-In . SVG Version: 6.00 Build 0)  -->
<svg version="1.2" baseProfile="tiny" id="Слой_1"
	 xmlns="http://www.w3.org/2000/svg" xmlns:xlink="http://www.w3.org/1999/xlink" x="0px" y="0px" viewBox="0 0 2000 2000"
	 overflow="visible" xml:space="preserve">
<text transform="matrix(1 0 0 1 1121.9434 822.1519)" fill="#FFFFFF" font-family="'MyriadPro-Bold'" font-size="148.466px">C</text>
<text transform="matrix(1 0 0 1 1207.6064 822.1519)" fill="#FFFFFF" font-family="'MyriadPro-Bold'" font-size="148.466px">e</text>
<text transform="matrix(1 0 0 1 1285.9961 822.1519)" fill="#FFFFFF" font-family="'MyriadPro-Bold'" font-size="148.466px">n</text>
<text transform="matrix(1 0 0 1 1372.2549 822.1519)" fill="#FFFFFF" font-family="'MyriadPro-Bold'" font-size="148.466px">t</text>
<text transform="matrix(1 0 0 1 1426.7402 822.1519)" fill="#FFFFFF" font-family="'MyriadPro-Bold'" font-size="148.466px">r</text>
<text transform="matrix(1 0 0 1 1482.8584 822.1519)" fill="#FFFFFF" font-family="'MyriadPro-Bold'" font-size="148.466px">u</text>
<text transform="matrix(1 0 0 1 1569.4131 822.1519)" fill="#FFFFFF" font-family="'MyriadPro-Bold'" font-size="148.466px">m</text>
<text transform="matrix(1 0 0 1 1121.9434 1000.3105)" fill="#FFFFFF" font-family="'MyriadPro-Bold'" font-size="148.466px">P</text>
<text transform="matrix(1 0 0 1 1204.6377 1000.3105)" fill="#FFFFFF" font-family="'MyriadPro-Bold'" font-size="148.466px">o</text>
<text transform="matrix(1 0 0 1 1290.748 1000.3105)" fill="#FFFFFF" font-family="'MyriadPro-Bold'" font-size="148.466px">d</text>
<text transform="matrix(1 0 0 1 1379.2324 1000.3105)" fill="#FFFFFF" font-family="'MyriadPro-Bold'" font-size="148.466px">p</text>
<text transform="matrix(1 0 0 1 1468.459 1000.3105)" fill="#FFFFFF" font-family="'MyriadPro-Bold'" font-size="148.466px">o</text>
<text transform="matrix(1 0 0 1 1554.123 1000.3105)" fill="#FFFFFF" font-family="'MyriadPro-Bold'" font-size="148.466px">r</text>
<text transform="matrix(1 0 0 1 1613.0625 1000.3105)" fill="#FFFFFF" font-family="'MyriadPro-Bold'" font-size="148.466px">y</text>
<text transform="matrix(1 0 0 1 1121.9434 1178.4707)" fill="#FFFFFF" font-family="'MyriadPro-Bold'" font-size="148.466px">C</text>
<text transform="matrix(1 0 0 1 1207.458 1178.4707)" fill="#FFFFFF" font-family="'MyriadPro-Bold'" font-size="148.466px">u</text>
<text transform="matrix(1 0 0 1 1294.0127 1178.4707)" fill="#FFFFFF" font-family="'MyriadPro-Bold'" font-size="148.466px">d</text>
<text transform="matrix(1 0 0 1 1382.4971 1178.4707)" fill="#FFFFFF" font-family="'MyriadPro-Bold'" font-size="148.466px">z</text>
<text transform="matrix(1 0 0 1 1452.127 1178.4707)" fill="#FFFFFF" font-family="'MyriadPro-Bold'" font-size="148.466px">i</text>
<text transform="matrix(1 0 0 1 1492.8047 1178.4707)" fill="#FFFFFF" font-family="'MyriadPro-Bold'" font-size="148.466px">n</text>
<text transform="matrix(1 0 0 1 1579.8057 1178.4707)" fill="#FFFFFF" font-family="'MyriadPro-Bold'" font-size="148.466px">c</text>
<text transform="matrix(1 0 0 1 1645.2773 1178.4707)" fill="#FFFFFF" font-family="'MyriadPro-Bold'" font-size="148.466px">o</text>
<text transform="matrix(1 0 0 1 1729.6055 1178.4707)" fill="#FFFFFF" font-family="'MyriadPro-Bold'" font-size="148.466px">v</text>
<g>
	<path fill="#FFFFFF" d="M508.65,1015.15v92.44c0,5.69,5.69,11.38,11.38,11.38c5.69,0,11.38-5.69,11.38-11.38v-85.33
		c0-2.84,2.85-5.69,5.69-5.69c2.84,0,5.69,2.84,5.69,5.69v214.76c0,8.53,5.69,14.22,14.22,14.22c7.11,0,14.22-5.69,14.22-14.22
		v-98.13h18.49v98.13c0,8.53,5.69,14.22,14.22,14.22c7.11,0,14.22-5.69,14.22-14.22v-216.18c0-2.84,2.85-5.69,5.69-5.69
		c2.84,0,5.69,2.84,5.69,5.69v85.33c0,5.69,5.69,11.38,11.38,11.38c5.69,0,11.38-5.69,11.38-11.38v-92.44
		c0-18.49-15.65-34.13-35.56-32.71h-73.96C524.29,981.02,508.65,996.67,508.65,1015.15z"/>
	
		<ellipse transform="matrix(0.3827 -0.9239 0.9239 0.3827 -501.583 1111.8141)" fill="#FFFFFF" cx="581.18" cy="931.24" rx="34.13" ry="34.13"/>
	<path fill="#FFFFFF" d="M446.94,673.94v59.89c0,3.69,3.69,7.37,7.37,7.37c3.69,0,7.37-3.68,7.37-7.37v-55.28
		c0-1.84,1.84-3.69,3.69-3.69c1.84,0,3.69,1.84,3.69,3.69v139.13c0,5.53,3.68,9.21,9.21,9.21c4.61,0,9.21-3.69,9.21-9.21V754.1
		h11.98v63.57c0,5.53,3.68,9.21,9.21,9.21c4.61,0,9.21-3.69,9.21-9.21V677.63c0-1.84,1.84-3.69,3.68-3.69
		c1.84,0,3.69,1.84,3.69,3.69v55.28c0,3.69,3.68,7.37,7.37,7.37c3.68,0,7.37-3.69,7.37-7.37v-59.89c0-11.98-10.14-22.11-23.04-21.19
		h-47.91C457.08,651.83,446.94,661.96,446.94,673.94z"/>
	<path fill="#FFFFFF" d="M516.04,619.58c0-12.21-9.9-22.11-22.11-22.11c-12.21,0-22.11,9.9-22.11,22.11
		c0,12.21,9.9,22.11,22.11,22.11C506.14,641.69,516.04,631.79,516.04,619.58z"/>
	<path fill="#FFFFFF" d="M613.94,673.94v59.89c0,3.69,3.69,7.37,7.37,7.37c3.69,0,7.37-3.68,7.37-7.37v-55.28
		c0-1.84,1.84-3.69,3.69-3.69c1.84,0,3.69,1.84,3.69,3.69v139.13c0,5.53,3.68,9.21,9.21,9.21c4.61,0,9.21-3.69,9.21-9.21V754.1
		h11.98v63.57c0,5.53,3.68,9.21,9.21,9.21c4.61,0,9.21-3.69,9.21-9.21V677.63c0-1.84,1.84-3.69,3.68-3.69
		c1.84,0,3.69,1.84,3.69,3.69v55.28c0,3.69,3.68,7.37,7.37,7.37c3.68,0,7.37-3.69,7.37-7.37v-59.89c0-11.98-10.14-22.11-23.04-21.19
		h-47.91C624.08,651.83,613.94,661.96,613.94,673.94z"/>
	<path fill="#FFFFFF" d="M683.04,619.58c0-12.21-9.9-22.11-22.11-22.11c-12.21,0-22.11,9.9-22.11,22.11
		c0,12.21,9.9,22.11,22.11,22.11C673.14,641.69,683.04,631.79,683.04,619.58z"/>
	<path fill="#FFFFFF" d="M291.94,705.94v59.89c0,3.69,3.69,7.37,7.37,7.37c3.69,0,7.37-3.68,7.37-7.37v-55.28
		c0-1.84,1.84-3.69,3.69-3.69c1.84,0,3.69,1.84,3.69,3.69v139.13c0,5.53,3.68,9.21,9.21,9.21c4.61,0,9.21-3.69,9.21-9.21V786.1
		h11.98v63.57c0,5.53,3.68,9.21,9.21,9.21c4.61,0,9.21-3.69,9.21-9.21V709.63c0-1.84,1.84-3.69,3.68-3.69
		c1.84,0,3.69,1.84,3.69,3.69v55.28c0,3.69,3.68,7.37,7.37,7.37c3.68,0,7.37-3.69,7.37-7.37v-59.89c0-11.98-10.14-22.11-23.03-21.19
		h-47.91C302.08,683.83,291.94,693.96,291.94,705.94z"/>
	<path fill="#FFFFFF" d="M361.04,651.58c0-12.21-9.9-22.11-22.11-22.11c-12.21,0-22.11,9.9-22.11,22.11
		c0,12.21,9.9,22.11,22.11,22.11C351.14,673.69,361.04,663.79,361.04,651.58z"/>
	<path fill="#FFFFFF" d="M681.65,990.15v92.44c0,5.69,5.69,11.38,11.38,11.38c5.69,0,11.38-5.69,11.38-11.38v-85.33
		c0-2.84,2.85-5.69,5.69-5.69c2.84,0,5.69,2.84,5.69,5.69v214.76c0,8.53,5.69,14.22,14.22,14.22c7.11,0,14.22-5.69,14.22-14.22
		v-98.13h18.49v98.13c0,8.53,5.69,14.22,14.22,14.22c7.11,0,14.22-5.69,14.22-14.22V995.84c0-2.84,2.85-5.69,5.69-5.69
		c2.84,0,5.69,2.84,5.69,5.69v85.33c0,5.69,5.69,11.38,11.38,11.38c5.69,0,11.38-5.69,11.38-11.38v-92.44
		c0-18.49-15.65-34.13-35.56-32.71h-73.96C697.29,956.02,681.65,971.67,681.65,990.15z"/>
	<circle fill="#FFFFFF" cx="754.18" cy="906.24" r="34.13"/>
	<path fill="#FFFFFF" d="M442.74,956.02h-73.96c-18.49,0-34.13,15.64-34.13,34.13v92.44c0,5.69,5.69,11.38,11.38,11.38
		c5.69,0,11.38-5.69,11.38-11.38v-85.33c0-2.84,2.84-5.69,5.69-5.69c2.85,0,5.69,2.84,5.69,5.69v214.76
		c0,8.53,5.69,14.22,14.22,14.22c7.11,0,14.22-5.69,14.22-14.22v-98.13h18.49v98.13c0,8.53,5.69,14.22,14.22,14.22
		c7.11,0,14.22-5.69,14.22-14.22V995.84c0-2.84,2.84-5.69,5.69-5.69c2.85,0,5.69,2.84,5.69,5.69v85.33
		c0,5.69,5.69,11.38,11.38,11.38c5.69,0,11.38-5.69,11.38-11.38v-92.44C478.29,970.24,462.65,954.6,442.74,956.02z"/>
	
		<ellipse transform="matrix(0.3827 -0.9239 0.9239 0.3827 -585.8991 935.6262)" fill="#FFFFFF" cx="407.18" cy="906.24" rx="34.13" ry="34.13"/>
	<path fill="#FFFFFF" d="M188.94,909.68v86.92c0,5.35,5.35,10.7,10.7,10.7s10.7-5.35,10.7-10.7v-80.23c0-2.68,2.68-5.35,5.35-5.35
		c2.68,0,5.35,2.68,5.35,5.35v201.92c0,8.02,5.35,13.37,13.37,13.37c6.69,0,13.37-5.35,13.37-13.37v-92.27h17.38v92.27
		c0,8.02,5.35,13.37,13.37,13.37c6.69,0,13.37-5.35,13.37-13.37V915.03c0-2.67,2.67-5.35,5.35-5.35c2.67,0,5.35,2.68,5.35,5.35
		v80.23c0,5.35,5.35,10.7,10.7,10.7s10.7-5.35,10.7-10.7v-86.92c0-17.38-14.71-32.09-33.43-30.76h-69.54
		C203.65,877.59,188.94,892.3,188.94,909.68z"/>
	<circle fill="#FFFFFF" cx="257.14" cy="830.79" r="32.09"/>
	<path fill="#FFFFFF" d="M774.94,705.02v59.89c0,3.69,3.69,7.37,7.37,7.37c3.69,0,7.37-3.68,7.37-7.37v-55.28
		c0-1.84,1.84-3.69,3.68-3.69c1.84,0,3.69,1.84,3.69,3.69v140.05c0,5.53,4.61,9.21,9.21,9.21c5.53,0,9.21-3.69,9.21-9.21V786.1
		h11.98v63.57c0,5.53,4.61,9.21,9.21,9.21c5.53,0,9.21-3.69,9.21-9.21V710.55c0-1.84,1.84-3.69,3.68-3.69
		c1.84,0,3.69,1.84,3.69,3.69v55.28c0,3.68,3.69,7.37,7.37,7.37c3.69,0,7.37-3.69,7.37-7.37v-59.89c0-11.98-10.14-22.11-22.11-22.11
		h-47.91C785.08,682.91,774.94,693.04,774.94,705.02z"/>
	<path fill="#FFFFFF" d="M843.12,651.58c0-12.21-9.9-22.11-22.11-22.11c-12.21,0-22.11,9.9-22.11,22.11
		c0,12.21,9.9,22.11,22.11,22.11C833.22,673.69,843.12,663.79,843.12,651.58z"/>
	<path fill="#FFFFFF" d="M938.91,877.59h-69.53c-18.72-1.34-33.43,13.37-33.43,30.76v86.92c0,5.35,5.35,10.7,10.7,10.7
		s10.7-5.35,10.7-10.7v-80.23c0-2.67,2.67-5.35,5.35-5.35c2.67,0,5.35,2.67,5.35,5.35v203.26c0,8.02,6.69,13.37,13.37,13.37
		c8.02,0,13.37-5.35,13.37-13.37v-92.27h17.38v92.27c0,8.02,6.69,13.37,13.37,13.37c8.02,0,13.37-5.35,13.37-13.37V916.37
		c0-2.67,2.67-5.35,5.35-5.35c2.67,0,5.35,2.67,5.35,5.35v80.23c0,5.35,5.35,10.7,10.7,10.7s10.7-5.35,10.7-10.7v-86.92
		C971,892.3,956.29,877.59,938.91,877.59z"/>
	<path fill="#FFFFFF" d="M934.89,830.79c0-17.72-14.37-32.09-32.09-32.09c-17.72,0-32.09,14.37-32.09,32.09
		c0,17.72,14.37,32.09,32.09,32.09C920.53,862.88,934.89,848.51,934.89,830.79z"/>
</g>
</svg>
