<?xml version="1.0" encoding="utf-8"?>
<svg xmlns="http://www.w3.org/2000/svg" viewBox="188.94 597.47 782.0502 653.7699" width="782.05px" height="653.77px" preserveAspectRatio="none"><g id="object-4" transform="matrix(1, 0, 0, 1, -5.684341886080802e-14, -5.684341886080802e-14)"><defs><rect id="SVGID_1_" width="2000" height="2000"/></defs><clipPath id="SVGID_2_"><rect width="2000" height="2000"/></clipPath><path clip-path="url(#SVGID_2_)" fill="#FFFFFF" d="M652.29,1013.73v92.44c0,5.69-5.69,11.38-11.38,11.38   c-5.69,0-11.38-5.69-11.38-11.38v-85.33c0-2.84-2.84-5.69-5.69-5.69c-2.84,0-5.69,2.84-5.69,5.69v216.18   c0,8.53-7.11,14.22-14.22,14.22c-8.53,0-14.22-5.69-14.22-14.22v-98.13h-18.49v98.13c0,8.53-7.11,14.22-14.22,14.22   c-8.53,0-14.22-5.69-14.22-14.22v-214.76c0-2.84-2.84-5.69-5.69-5.69c-2.84,0-5.69,2.84-5.69,5.69v85.33   c0,5.69-5.69,11.38-11.38,11.38c-5.69,0-11.38-5.69-11.38-11.38v-92.44c0-18.49,15.64-34.13,34.13-34.13h73.96   C636.65,979.6,652.29,995.24,652.29,1013.73"/><path clip-path="url(#SVGID_2_)" fill="#FFFFFF" d="M581.18,897.11c18.85,0,34.13,15.28,34.13,34.13s-15.28,34.13-34.13,34.13   c-18.85,0-34.13-15.28-34.13-34.13S562.33,897.11,581.18,897.11"/><path clip-path="url(#SVGID_2_)" fill="#FFFFFF" d="M540,673.02v59.89c0,3.69-3.69,7.37-7.37,7.37c-3.69,0-7.37-3.69-7.37-7.37   v-55.28c0-1.84-1.84-3.69-3.69-3.69c-1.84,0-3.68,1.84-3.68,3.69v140.05c0,5.53-4.61,9.21-9.21,9.21c-5.53,0-9.21-3.69-9.21-9.21   V754.1h-11.98v63.57c0,5.53-4.61,9.21-9.21,9.21c-5.53,0-9.21-3.69-9.21-9.21V678.55c0-1.84-1.84-3.69-3.69-3.69   c-1.84,0-3.69,1.84-3.69,3.69v55.28c0,3.69-3.68,7.37-7.37,7.37c-3.68,0-7.37-3.68-7.37-7.37v-59.89   c0-11.98,10.14-22.11,22.11-22.11h47.91C529.86,650.91,540,661.04,540,673.02"/><path clip-path="url(#SVGID_2_)" fill="#FFFFFF" d="M493.93,597.47c12.21,0,22.11,9.9,22.11,22.11c0,12.21-9.9,22.11-22.11,22.11   c-12.21,0-22.11-9.9-22.11-22.11C471.82,607.37,481.72,597.47,493.93,597.47"/><path clip-path="url(#SVGID_2_)" fill="#FFFFFF" d="M707,673.02v59.89c0,3.69-3.69,7.37-7.37,7.37c-3.69,0-7.37-3.69-7.37-7.37   v-55.28c0-1.84-1.84-3.69-3.69-3.69c-1.84,0-3.68,1.84-3.68,3.69v140.05c0,5.53-4.61,9.21-9.21,9.21c-5.53,0-9.21-3.69-9.21-9.21   V754.1h-11.98v63.57c0,5.53-4.61,9.21-9.21,9.21c-5.53,0-9.21-3.69-9.21-9.21V678.55c0-1.84-1.84-3.69-3.69-3.69   c-1.84,0-3.69,1.84-3.69,3.69v55.28c0,3.69-3.68,7.37-7.37,7.37c-3.68,0-7.37-3.68-7.37-7.37v-59.89   c0-11.98,10.14-22.11,22.11-22.11h47.91C696.86,650.91,707,661.04,707,673.02"/><path clip-path="url(#SVGID_2_)" fill="#FFFFFF" d="M660.93,597.47c12.21,0,22.11,9.9,22.11,22.11c0,12.21-9.9,22.11-22.11,22.11   c-12.21,0-22.11-9.9-22.11-22.11C638.82,607.37,648.72,597.47,660.93,597.47"/><path clip-path="url(#SVGID_2_)" fill="#FFFFFF" d="M385,705.02v59.89c0,3.69-3.69,7.37-7.37,7.37c-3.69,0-7.37-3.69-7.37-7.37   v-55.28c0-1.84-1.84-3.69-3.69-3.69c-1.84,0-3.68,1.84-3.68,3.69v140.05c0,5.53-4.61,9.21-9.21,9.21c-5.53,0-9.21-3.69-9.21-9.21   V786.1h-11.98v63.57c0,5.53-4.61,9.21-9.21,9.21c-5.53,0-9.21-3.69-9.21-9.21V710.55c0-1.84-1.84-3.69-3.69-3.69   c-1.84,0-3.69,1.84-3.69,3.69v55.28c0,3.69-3.68,7.37-7.37,7.37c-3.68,0-7.37-3.68-7.37-7.37v-59.89   c0-11.98,10.14-22.11,22.11-22.11h47.91C374.86,682.91,385,693.04,385,705.02"/><path clip-path="url(#SVGID_2_)" fill="#FFFFFF" d="M338.93,629.47c12.21,0,22.11,9.9,22.11,22.11c0,12.21-9.9,22.11-22.11,22.11   c-12.21,0-22.11-9.9-22.11-22.11C316.82,639.37,326.72,629.47,338.93,629.47"/><path clip-path="url(#SVGID_2_)" fill="#FFFFFF" d="M825.29,988.73v92.44c0,5.69-5.69,11.38-11.38,11.38   c-5.69,0-11.38-5.69-11.38-11.38v-85.33c0-2.84-2.84-5.69-5.69-5.69c-2.84,0-5.69,2.84-5.69,5.69v216.18   c0,8.53-7.11,14.22-14.22,14.22c-8.53,0-14.22-5.69-14.22-14.22v-98.13h-18.49v98.13c0,8.53-7.11,14.22-14.22,14.22   c-8.53,0-14.22-5.69-14.22-14.22V997.27c0-2.84-2.84-5.69-5.69-5.69c-2.84,0-5.69,2.84-5.69,5.69v85.33   c0,5.69-5.69,11.38-11.38,11.38c-5.69,0-11.38-5.69-11.38-11.38v-92.44c0-18.49,15.64-34.13,34.13-34.13h73.96   C809.65,954.6,825.29,970.24,825.29,988.73"/><path clip-path="url(#SVGID_2_)" fill="#FFFFFF" d="M754.18,872.11c18.85,0,34.13,15.28,34.13,34.13s-15.28,34.13-34.13,34.13   c-18.85,0-34.13-15.28-34.13-34.13S735.33,872.11,754.18,872.11"/><path clip-path="url(#SVGID_2_)" fill="#FFFFFF" d="M478.29,988.73v92.44c0,5.69-5.69,11.38-11.38,11.38s-11.38-5.69-11.38-11.38   v-85.33c0-2.84-2.84-5.69-5.69-5.69c-2.84,0-5.69,2.84-5.69,5.69v216.18c0,8.53-7.11,14.22-14.22,14.22   c-8.53,0-14.22-5.69-14.22-14.22v-98.13h-18.49v98.13c0,8.53-7.11,14.22-14.22,14.22c-8.53,0-14.22-5.69-14.22-14.22V997.27   c0-2.84-2.84-5.69-5.69-5.69c-2.84,0-5.69,2.84-5.69,5.69v85.33c0,5.69-5.69,11.38-11.38,11.38s-11.38-5.69-11.38-11.38v-92.44   c0-18.49,15.64-34.13,34.13-34.13h73.96C462.65,954.6,478.29,970.24,478.29,988.73"/><path clip-path="url(#SVGID_2_)" fill="#FFFFFF" d="M407.18,872.11c18.85,0,34.13,15.28,34.13,34.13s-15.28,34.13-34.13,34.13   c-18.85,0-34.13-15.28-34.13-34.13S388.33,872.11,407.18,872.11"/><path clip-path="url(#SVGID_2_)" fill="#FFFFFF" d="M324,908.34v86.92c0,5.35-5.35,10.7-10.7,10.7s-10.7-5.35-10.7-10.7v-80.23   c0-2.67-2.67-5.35-5.35-5.35c-2.67,0-5.35,2.67-5.35,5.35v203.26c0,8.02-6.69,13.37-13.37,13.37c-8.02,0-13.37-5.35-13.37-13.37   v-92.27h-17.38v92.27c0,8.02-6.69,13.37-13.37,13.37c-8.02,0-13.37-5.35-13.37-13.37V916.37c0-2.67-2.67-5.35-5.35-5.35   c-2.67,0-5.35,2.67-5.35,5.35v80.23c0,5.35-5.35,10.7-10.7,10.7s-10.7-5.35-10.7-10.7v-86.92c0-17.38,14.71-32.09,32.09-32.09   h69.54C309.29,876.25,324,890.96,324,908.34"/><path clip-path="url(#SVGID_2_)" fill="#FFFFFF" d="M257.14,798.69c17.72,0,32.09,14.37,32.09,32.09   c0,17.72-14.37,32.09-32.09,32.09s-32.09-14.37-32.09-32.09C225.05,813.06,239.42,798.69,257.14,798.69"/><path clip-path="url(#SVGID_2_)" fill="#FFFFFF" d="M797.98,683.83h47.91c11.98,0,22.11,10.14,22.11,22.11v59.89   c0,3.68-3.68,7.37-7.37,7.37c-3.68,0-7.37-3.69-7.37-7.37v-55.28c0-1.84-1.84-3.69-3.69-3.69c-1.84,0-3.68,1.84-3.68,3.69v139.13   c0,5.53-3.69,9.21-9.21,9.21c-4.61,0-9.21-3.69-9.21-9.21V786.1h-11.98v63.57c0,5.53-3.69,9.21-9.21,9.21   c-4.61,0-9.21-3.69-9.21-9.21V709.62c0-1.84-1.84-3.69-3.69-3.69c-1.84,0-3.68,1.84-3.68,3.69v55.28c0,3.69-3.69,7.37-7.37,7.37   c-3.69,0-7.37-3.68-7.37-7.37v-59.89C774.94,693.04,785.08,682.91,797.98,683.83"/><path clip-path="url(#SVGID_2_)" fill="#FFFFFF" d="M843.12,651.58c0,12.21-9.9,22.11-22.11,22.11c-12.21,0-22.11-9.9-22.11-22.11   c0-12.21,9.9-22.11,22.11-22.11C833.22,629.47,843.12,639.37,843.12,651.58"/><path clip-path="url(#SVGID_2_)" fill="#FFFFFF" d="M869.37,877.59h69.53c17.38,0,32.09,14.71,32.09,32.09v86.92   c0,5.35-5.35,10.7-10.7,10.7s-10.7-5.35-10.7-10.7v-80.23c0-2.68-2.68-5.35-5.35-5.35c-2.68,0-5.35,2.68-5.35,5.35v201.92   c0,8.02-5.35,13.37-13.37,13.37c-6.69,0-13.37-5.35-13.37-13.37v-92.27h-17.38v92.27c0,8.02-5.35,13.37-13.37,13.37   c-6.69,0-13.37-5.35-13.37-13.37V915.03c0-2.67-2.67-5.35-5.35-5.35c-2.67,0-5.35,2.68-5.35,5.35v80.23c0,5.35-5.35,10.7-10.7,10.7   s-10.7-5.35-10.7-10.7v-86.92C835.94,890.96,850.65,876.25,869.37,877.59"/><path clip-path="url(#SVGID_2_)" fill="#FFFFFF" d="M934.89,830.79c0,17.72-14.37,32.09-32.09,32.09   c-17.72,0-32.09-14.37-32.09-32.09c0-17.72,14.37-32.09,32.09-32.09C920.53,798.69,934.89,813.06,934.89,830.79"/></g></svg>